<?xml version="1.0" encoding="UTF-8"?>
<svg width="190px" height="59px" viewBox="0 0 190 59" version="1.1" xmlns="http://www.w3.org/2000/svg" xmlns:xlink="http://www.w3.org/1999/xlink" style="background: #25354A;">
    <!-- Generator: Sketch 64 (93537) - https://sketch.com -->
    <title>UI/Logo/Listers (Contrast)</title>
    <desc>Created with Sketch.</desc>
    <g id="UI/Logo/Listers-(Contrast)" stroke="none" stroke-width="1" fill="none" fill-rule="evenodd">
        <rect fill="#25354A" x="0" y="0" width="190" height="59"></rect>
        <g id="Listers" fill="#FFFFFF">
            <polygon id="Fill-1" points="0 25 0 58 23.1472115 58 23.1472115 52.7197749 5.7983756 52.7197749 5.7983756 25"></polygon>
            <polygon id="Fill-2" points="29 58 34.7986313 58 34.7986313 25 29 25"></polygon>
            <path d="M40.9,53.3110371 L44.394379,49.1554417 C47.5582778,51.8945839 50.7221767,53.4532204 54.8303776,53.4532204 C58.4195455,53.4532204 60.6862805,51.8003074 60.6862805,49.297625 L60.6862805,49.2028361 C60.6862805,46.8418246 59.3638476,45.5667862 53.2248591,44.1500769 C46.1887067,42.4500256 42.2221767,40.3720998 42.2221767,34.2805057 L42.2221767,34.1862292 C42.2221767,28.5193918 46.9444558,24.6 53.5084572,24.6 C58.325269,24.6 62.1501281,26.0638476 65.5030923,28.7553392 L62.3863317,33.1471383 C59.4112421,30.9277977 56.4361524,29.7470358 53.4139245,29.7470358 C50.013822,29.7470358 48.0304289,31.4944814 48.0304289,33.6666837 L48.0304289,33.7609602 C48.0304289,36.3110371 49.5416709,37.4441484 55.8697248,38.9556466 C62.8584828,40.6556979 66.4945327,43.1581241 66.4945327,48.6361524 L66.4945327,48.7309413 C66.4945327,54.9168118 61.6308388,58.6 54.6889629,58.6 C49.6359474,58.6 44.8667862,56.8528105 40.9,53.3110371" id="Fill-3"></path>
            <polygon id="Fill-5" points="79.9654856 30.3745553 69.5 30.3745553 69.5 25 96.2766153 25 96.2766153 30.3745553 85.8111297 30.3745553 85.8111297 58 79.9654856 58"></polygon>
            <polygon id="Fill-7" points="101.9 25 126.366884 25 126.366884 30.1855974 107.698376 30.1855974 107.698376 38.766027 124.245178 38.766027 124.245178 43.9518802 107.698376 43.9518802 107.698376 52.8144026 126.602686 52.8144026 126.602686 58 101.9 58"></polygon>
            <path d="M147.184689,41.3588257 C151.333218,41.3588257 153.972819,39.1903171 153.972819,35.8433102 L153.972819,35.7489382 C153.972819,32.2131874 151.427079,30.2804808 147.136864,30.2804808 L138.698887,30.2804808 L138.698887,41.3588257 L147.184689,41.3588257 Z M132.9,25 L147.608468,25 C151.756997,25 155.010143,26.226068 157.131594,28.2999488 C158.875556,30.0917369 159.865822,32.5431056 159.865822,35.4185086 L159.865822,35.513392 C159.865822,40.9347914 156.612676,44.1871706 151.992799,45.5073548 L160.903147,58 L154.067191,58 L145.958621,46.497365 L145.864505,46.497365 L138.698887,46.497365 L138.698887,58 L132.9,58 L132.9,25 Z" id="Fill-9"></path>
            <path d="M164.2,53.3110371 L167.694635,49.1554417 C170.85879,51.8945839 174.022433,53.4532204 178.13089,53.4532204 C181.719802,53.4532204 183.986024,51.8003074 183.986024,49.297625 L183.986024,49.2028361 C183.986024,46.8418246 182.66436,45.5667862 176.525115,44.1500769 C169.489219,42.4500256 165.522177,40.3720998 165.522177,34.2805057 L165.522177,34.1862292 C165.522177,28.5193918 170.244456,24.6 176.808457,24.6 C181.625525,24.6 185.450384,26.0638476 188.803092,28.7553392 L185.686588,33.1471383 C182.711498,30.9277977 179.736665,29.7470358 176.714181,29.7470358 C173.314334,29.7470358 171.330685,31.4944814 171.330685,33.6666837 L171.330685,33.7609602 C171.330685,36.3110371 172.841927,37.4441484 179.169981,38.9556466 C186.158483,40.6556979 189.795045,43.1581241 189.795045,48.6361524 L189.795045,48.7309413 C189.795045,54.9168118 184.931095,58.6 177.989219,58.6 C172.93646,58.6 168.166786,56.8528105 164.2,53.3110371" id="Fill-11"></path>
            <path d="M162.179396,24.9108532 C151.930522,10.7521416 120.691725,15.8432441 110.953299,16.9943923 C84.9242722,-6.39049447 52.8753989,12.2852899 26,15.0913425 C57.7410081,7.65727237 78.8830606,-9.61921819 110.273988,6.96457561 C113.08905,8.45190445 117.299544,10.751112 117.299544,10.751112 C127.03797,9.60022116 159.056212,7.20036536 162.179396,24.9108532" id="Fill-14"></path>
        </g>
    </g>
</svg>